<?xml version="1.0" encoding="utf-8"?>
<!-- Generator: Adobe Illustrator 25.1.0, SVG Export Plug-In . SVG Version: 6.00 Build 0)  -->
<svg version="1.1" id="레이어_1" xmlns="http://www.w3.org/2000/svg" xmlns:xlink="http://www.w3.org/1999/xlink" x="0px"
	 y="0px" viewBox="0 0 150 150" style="enable-background:new 0 0 150 150;" xml:space="preserve">
<g>
	<g>
		<g>
			<path fill="#E8E6E4" d="M140.8,68L34.6,129.6c-2.4,1.4-7.8,0.8-12-1.4l-3.2-1.2c-4.3-2.1-5.8-5-3.4-6.3l106.2-61.6
				c2.4-1.4,7.8-0.8,12,1.4l3.2,1.2C141.7,63.8,143.2,66.6,140.8,68z"/>
		</g>
		<g>
			<g>
				<g>
					<polygon fill="#FFFFFF" points="125,40 131.2,40 126.3,43 					"/>
					<path fill="#252D40" d="M126.3,43.7c-0.1,0-0.2,0-0.2,0c-0.2-0.1-0.4-0.2-0.5-0.4l-1.2-2.9c-0.1-0.2-0.1-0.5,0.1-0.7
						c0.1-0.2,0.4-0.3,0.6-0.3h6.2c0.3,0,0.6,0.2,0.7,0.6c0.1,0.3-0.1,0.7-0.3,0.9l-5,2.9C126.5,43.7,126.4,43.7,126.3,43.7z
						 M126.2,40.8l0.5,1.1l1.8-1.1H126.2z"/>
				</g>
				<g>
					<path fill="#FFFFFF" d="M125,50.2l-5,2.9l0,12.4l-10,5.9l0-12.4L88.5,71.9l0-10.2l21.8-55.1l9.8-5.9L120.1,43l5-2.9L125,50.2z
						 M110.2,48.9l0-22.4L98.8,55.6L110.2,48.9z"/>
					<path fill="#252D40" d="M88.5,72.7c-0.1,0-0.3,0-0.4-0.1c-0.2-0.1-0.4-0.4-0.4-0.7l0-10.2c0-0.1,0-0.2,0.1-0.3l21.8-55.1
						c0.1-0.2,0.2-0.3,0.3-0.4l9.8-5.9c0.2-0.1,0.5-0.1,0.8,0c0.2,0.1,0.4,0.4,0.4,0.7l-0.1,40.9l3.8-2.3c0.2-0.1,0.5-0.1,0.8,0
						c0.2,0.1,0.4,0.4,0.4,0.7l0,10.2c0,0.3-0.1,0.5-0.4,0.7l-4.6,2.7l0,12c0,0.3-0.1,0.5-0.4,0.7l-10,5.9c-0.2,0.1-0.5,0.1-0.8,0
						c-0.2-0.1-0.4-0.4-0.4-0.7l0-11.1L88.9,72.6C88.8,72.7,88.6,72.7,88.5,72.7z M89.3,61.9l0,8.7l20.4-12.1c0.2-0.1,0.5-0.1,0.8,0
						c0.2,0.1,0.4,0.4,0.4,0.7l0,11.1l8.5-5l0-12c0-0.3,0.1-0.5,0.4-0.7l4.6-2.7l0-8.4l-3.8,2.3c-0.2,0.1-0.5,0.1-0.8,0
						c-0.2-0.1-0.4-0.4-0.4-0.7l0.1-40.9l-8.5,5L89.3,61.9z M125,50.2L125,50.2L125,50.2z M98.8,56.4c-0.2,0-0.4-0.1-0.5-0.2
						c-0.2-0.2-0.3-0.6-0.2-0.9l11.4-29.2c0.1-0.3,0.5-0.5,0.9-0.5c0.4,0.1,0.6,0.4,0.6,0.8l0,22.4c0,0.3-0.1,0.5-0.4,0.7l-11.3,6.7
						C99.1,56.3,99,56.4,98.8,56.4z M109.4,30.5l-9.1,23.3l9.1-5.4L109.4,30.5z M110.2,48.9L110.2,48.9L110.2,48.9z"/>
				</g>
				<g>
					<path fill="#252D40" d="M131.2,50.2l-5,2.9l0,12.4l-10,5.9l0-12.4L94.7,71.9l0-10.2l21.8-55.1l9.8-5.9L126.3,43l5-2.9L131.2,50.2z
						 M116.4,48.9l0-22.4L105,55.6L116.4,48.9z"/>
					<path fill="#252D40" d="M94.7,72.7c-0.1,0-0.3,0-0.4-0.1c-0.2-0.1-0.4-0.4-0.4-0.7l0-10.2c0-0.1,0-0.2,0.1-0.3l21.8-55.1
						c0.1-0.2,0.2-0.3,0.3-0.4l9.8-5.9c0.2-0.1,0.5-0.1,0.8,0c0.2,0.1,0.4,0.4,0.4,0.7L127,41.6l3.8-2.3c0.2-0.1,0.5-0.1,0.8,0
						c0.2,0.1,0.4,0.4,0.4,0.7l0,10.2c0,0.3-0.1,0.5-0.4,0.7l-4.6,2.7l0,12c0,0.3-0.1,0.5-0.4,0.7l-10,5.9c-0.2,0.1-0.5,0.1-0.8,0
						c-0.2-0.1-0.4-0.4-0.4-0.7l0-11.1L95.1,72.6C95,72.7,94.8,72.7,94.7,72.7z M95.5,61.9l0,8.7l20.4-12.1c0.2-0.1,0.5-0.1,0.8,0
						c0.2,0.1,0.4,0.4,0.4,0.7l0,11.1l8.5-5l0-12c0-0.3,0.1-0.5,0.4-0.7l4.6-2.7l0-8.4l-3.8,2.3c-0.2,0.1-0.5,0.1-0.8,0
						c-0.2-0.1-0.4-0.4-0.4-0.7l0.1-40.9l-8.5,5L95.5,61.9z M131.2,50.2L131.2,50.2L131.2,50.2z M105,56.4c-0.2,0-0.4-0.1-0.5-0.2
						c-0.2-0.2-0.3-0.6-0.2-0.9l11.4-29.2c0.1-0.3,0.5-0.5,0.9-0.5c0.4,0.1,0.6,0.4,0.6,0.8l0,22.4c0,0.3-0.1,0.5-0.4,0.7l-11.3,6.7
						C105.3,56.3,105.2,56.4,105,56.4z M115.6,30.5l-9.1,23.3l9.1-5.4L115.6,30.5z M116.4,48.9L116.4,48.9L116.4,48.9z"/>
				</g>
				<g>
					<polygon fill="#FFFFFF" points="120.2,0.8 126.4,0.8 116.5,6.6 94.7,61.7 94.7,71.9 88.5,71.9 88.5,61.7 110.3,6.6 					"/>
					<path fill="#252D40" d="M94.7,72.7h-6.2c-0.2,0-0.4-0.1-0.5-0.2c-0.1-0.1-0.2-0.3-0.2-0.5l0-10.2c0-0.1,0-0.2,0.1-0.3l21.8-55.1
						c0.1-0.2,0.2-0.3,0.3-0.4l9.8-5.9C119.9,0,120,0,120.2,0h6.2c0.3,0,0.6,0.2,0.7,0.6c0.1,0.3-0.1,0.7-0.3,0.9l-9.6,5.7
						L95.5,61.9l0,10.1C95.5,72.4,95.1,72.7,94.7,72.7z M89.3,71.2h4.7l0-9.4c0-0.1,0-0.2,0.1-0.3l21.8-55.1
						c0.1-0.2,0.2-0.3,0.3-0.4l7.5-4.4h-3.2l-9.4,5.6L89.3,61.9L89.3,71.2z"/>
				</g>
				<g>
					<polygon fill="#FFFFFF" points="110.1,71.5 116.3,71.5 116.3,59.1 110.1,62.8 					"/>
					<path fill="#252D40" d="M116.3,72.3h-6.2c-0.2,0-0.4-0.1-0.5-0.2c-0.1-0.1-0.2-0.3-0.2-0.5l0-8.7c0-0.3,0.1-0.5,0.4-0.7l6.2-3.7
						c0.2-0.1,0.5-0.1,0.8,0c0.2,0.1,0.4,0.4,0.4,0.7l0,12.4C117,71.9,116.7,72.3,116.3,72.3z M110.8,70.8h4.7l0-10.3l-4.7,2.8
						L110.8,70.8z"/>
				</g>
				<g>
					<polygon fill="#FFFFFF" points="110.2,48.9 116.4,48.9 105,55.6 106.9,50.8 					"/>
					<path fill="#252D40" d="M105,56.4c-0.2,0-0.4-0.1-0.5-0.2c-0.2-0.2-0.3-0.6-0.2-0.9l1.9-4.8c0.1-0.2,0.2-0.3,0.3-0.4l3.3-1.9
						c0.1-0.1,0.3-0.1,0.4-0.1h6.2c0.3,0,0.6,0.2,0.7,0.6c0.1,0.3-0.1,0.7-0.3,0.9l-11.3,6.7C105.3,56.3,105.2,56.4,105,56.4z
						 M107.5,51.3l-1,2.5l7-4.2h-3.2L107.5,51.3z"/>
				</g>
			</g>
			<g>
				<path fill="#FFFFFF" d="M67.1,98.6c-14.1,8.4-16.9-1-16.8-23.7c0-21.6,2.3-35.1,17-43.8c14.6-8.7,16.9,2.1,16.8,23.7
					C84,77.7,81,90.3,67.1,98.6z M67.2,41.5c-6.7,4-6.9,12.6-6.9,27.4c0,14.9,0.1,23.3,6.8,19.3c6.7-4,6.9-12.6,6.9-27.4
					S73.9,37.5,67.2,41.5z"/>
				<path fill="#252D40" d="M58.7,102.4c-1.2,0-2.3-0.3-3.3-0.8c-4.9-2.8-5.9-12.7-5.9-26.7c0-22.7,2.7-35.8,17.3-44.4
					c5.3-3.2,9.3-3.9,12.1-2.3c4.9,2.8,5.9,12.3,5.9,26.6c-0.1,28.7-6.1,37.8-17.3,44.4l0,0C63.9,101.3,61.1,102.4,58.7,102.4z
					 M75.6,28.9c-2.1,0-4.7,1-8,2.9c-14,8.3-16.6,21-16.6,43.1c0,11.6,0.6,22.7,5.1,25.3c2.3,1.3,5.8,0.6,10.6-2.3
					c14-8.3,16.6-21,16.6-43.1c0-13.4-0.8-22.9-5.1-25.3C77.5,29.1,76.6,28.9,75.6,28.9z M67.1,98.6L67.1,98.6L67.1,98.6z
					 M64.3,89.9c-0.6,0-1.1-0.1-1.6-0.4c-3-1.7-3.2-8.6-3.2-20.6c0-14.3,0-23.8,7.3-28.1l0,0c2-1.2,3.6-1.4,4.8-0.7
					c3,1.7,3.2,8.6,3.1,20.6c0,14.3,0,23.8-7.3,28.1C66.3,89.6,65.2,89.9,64.3,89.9z M70.1,41.3c-0.7,0-1.5,0.3-2.5,0.9l0,0
					c-6.2,3.7-6.5,11.3-6.5,26.8c0,9.6,0,17.9,2.4,19.3c0.7,0.4,1.8,0.2,3.3-0.7c6.2-3.7,6.5-11.3,6.5-26.8c0-9.6,0-17.9-2.4-19.3
					C70.7,41.3,70.4,41.3,70.1,41.3z M67.2,41.5L67.2,41.5L67.2,41.5z"/>
			</g>
			<g>
				<path fill="#252D40" d="M73.3,98.6c-14.1,8.4-16.9-1-16.8-23.7c0-21.6,2.3-35.1,17-43.8c14.6-8.7,16.9,2.1,16.8,23.7
					C90.2,77.7,87.2,90.3,73.3,98.6z M73.4,41.5c-6.7,4-6.9,12.6-6.9,27.4c0,14.9,0.1,23.3,6.8,19.3c6.7-4,6.9-12.6,6.9-27.4
					C80.3,45.9,80.1,37.5,73.4,41.5z"/>
				<path fill="#252D40" d="M64.9,102.4c-1.2,0-2.3-0.3-3.3-0.8c-4.9-2.8-5.9-12.7-5.9-26.7c0-22.7,2.7-35.8,17.3-44.4
					c5.3-3.2,9.3-3.9,12.1-2.3c4.9,2.8,5.9,12.3,5.9,26.6C91,83.5,84.9,92.6,73.7,99.2l0,0C70.1,101.3,67.3,102.4,64.9,102.4z
					 M81.8,28.9c-2.1,0-4.7,1-8,2.9c-14,8.3-16.6,21-16.6,43.1c0,11.6,0.6,22.7,5.1,25.3c2.3,1.3,5.8,0.6,10.6-2.3
					c14-8.3,16.6-21,16.6-43.1c0-13.4-0.8-22.9-5.1-25.3C83.7,29.1,82.8,28.9,81.8,28.9z M73.3,98.6L73.3,98.6L73.3,98.6z
					 M70.5,89.9c-0.6,0-1.1-0.1-1.6-0.4c-3-1.7-3.2-8.6-3.1-20.6c0-14.3,0-23.8,7.3-28.1l0,0c2-1.2,3.6-1.4,4.8-0.7
					c3,1.7,3.2,8.6,3.1,20.6c0,14.3,0,23.8-7.3,28.1C72.5,89.6,71.4,89.9,70.5,89.9z M73.8,42.2c-6.2,3.7-6.5,11.3-6.5,26.8
					c0,9.6,0,17.9,2.4,19.3c0.7,0.4,1.8,0.2,3.3-0.7c6.2-3.7,6.5-11.3,6.5-26.8c0-9.6,0-17.9-2.4-19.3
					C76.4,41.1,75.3,41.3,73.8,42.2L73.8,42.2z"/>
			</g>
			<g>
				<line fill="#FFFFFF" x1="74.9" y1="28.1" x2="81.8" y2="28.1"/>
				<path fill="#252D40" d="M81.8,28.9h-6.9c-0.4,0-0.8-0.3-0.8-0.8c0-0.4,0.3-0.8,0.8-0.8h6.9c0.4,0,0.8,0.3,0.8,0.8
					C82.6,28.6,82.2,28.9,81.8,28.9z"/>
			</g>
			<g>
				<line fill="#FFFFFF" x1="57.5" y1="101.6" x2="64.7" y2="101.6"/>
				<path fill="#252D40" d="M57.5,102.4c-0.4,0-0.8-0.3-0.8-0.8c0-0.4,0.3-0.8,0.8-0.8l7.2,0l0,0c0.4,0,0.8,0.3,0.8,0.8
					c0,0.4-0.3,0.8-0.8,0.8L57.5,102.4L57.5,102.4z"/>
			</g>
			<g>
				<g>
					<polygon fill="#FFFFFF" points="45.4,87.6 51.6,87.6 46.6,90.6 					"/>
					<path fill="#252D40" d="M46.6,91.3c-0.1,0-0.2,0-0.2,0c-0.2-0.1-0.4-0.2-0.5-0.4l-1.2-2.9c-0.1-0.2-0.1-0.5,0.1-0.7
						c0.1-0.2,0.4-0.3,0.6-0.3h6.2c0.3,0,0.6,0.2,0.7,0.6c0.1,0.3-0.1,0.7-0.3,0.9l-5,2.9C46.9,91.3,46.7,91.3,46.6,91.3z
						 M46.5,88.4l0.5,1.1l1.8-1.1H46.5z"/>
				</g>
				<g>
					<path fill="#FFFFFF" d="M45.3,97.8l-5,2.9l0,12.4l-10,5.9l0-12.4L8.8,119.6l0-10.2l21.8-55.1l9.8-5.9l-0.1,42.2l5-2.9L45.3,97.8z
						 M30.5,96.5l0-22.4l-11.4,29.2L30.5,96.5z"/>
					<path fill="#252D40" d="M8.8,120.3c-0.1,0-0.3,0-0.4-0.1c-0.2-0.1-0.4-0.4-0.4-0.7l0-10.2c0-0.1,0-0.2,0.1-0.3l21.8-55.1
						c0.1-0.2,0.2-0.3,0.3-0.4l9.8-5.9c0.2-0.1,0.5-0.1,0.8,0c0.2,0.1,0.4,0.4,0.4,0.7l-0.1,40.9L45,87c0.2-0.1,0.5-0.1,0.8,0
						c0.2,0.1,0.4,0.4,0.4,0.7l0,10.2c0,0.3-0.1,0.5-0.4,0.7l-4.6,2.7l0,12c0,0.3-0.1,0.5-0.4,0.7l-10,5.9c-0.2,0.1-0.5,0.1-0.8,0
						c-0.2-0.1-0.4-0.4-0.4-0.7l0-11.1L9.2,120.2C9.1,120.3,9,120.3,8.8,120.3z M9.6,109.5l0,8.7L30,106.1c0.2-0.1,0.5-0.1,0.8,0
						c0.2,0.1,0.4,0.4,0.4,0.7l0,11.1l8.5-5l0-12c0-0.3,0.1-0.5,0.4-0.7l4.6-2.7l0-8.4l-3.8,2.3c-0.2,0.1-0.5,0.1-0.8,0
						s-0.4-0.4-0.4-0.7l0.1-40.9l-8.5,5L9.6,109.5z M45.3,97.8L45.3,97.8L45.3,97.8z M19.2,104c-0.2,0-0.4-0.1-0.5-0.2
						c-0.2-0.2-0.3-0.6-0.2-0.9l11.4-29.2c0.1-0.3,0.5-0.5,0.9-0.5c0.4,0.1,0.6,0.4,0.6,0.8l0,22.4c0,0.3-0.1,0.5-0.4,0.7l-11.3,6.7
						C19.4,103.9,19.3,104,19.2,104z M29.8,78.1l-9.1,23.3l9.1-5.4L29.8,78.1z M30.5,96.5L30.5,96.5L30.5,96.5z"/>
				</g>
				<g>
					<path fill="#252D40" d="M51.5,97.8l-5,2.9l0,12.4l-10,5.9l0-12.4L15,119.6l0-10.2l21.8-55.1l9.8-5.9l-0.1,42.2l5-2.9L51.5,97.8z
						 M36.7,96.5l0-22.4l-11.4,29.2L36.7,96.5z"/>
					<path fill="#252D40" d="M15,120.3c-0.1,0-0.3,0-0.4-0.1c-0.2-0.1-0.4-0.4-0.4-0.7l0-10.2c0-0.1,0-0.2,0.1-0.3l21.8-55.1
						c0.1-0.2,0.2-0.3,0.3-0.4l9.8-5.9c0.2-0.1,0.5-0.1,0.8,0c0.2,0.1,0.4,0.4,0.4,0.7l-0.1,40.9l3.8-2.3c0.2-0.1,0.5-0.1,0.8,0
						c0.2,0.1,0.4,0.4,0.4,0.7l0,10.2c0,0.3-0.1,0.5-0.4,0.7l-4.6,2.7l0,12c0,0.3-0.1,0.5-0.4,0.7l-10,5.9c-0.2,0.1-0.5,0.1-0.8,0
						c-0.2-0.1-0.4-0.4-0.4-0.7l0-11.1l-20.4,12.1C15.3,120.3,15.2,120.3,15,120.3z M15.8,109.5l0,8.7l20.4-12.1
						c0.2-0.1,0.5-0.1,0.8,0c0.2,0.1,0.4,0.4,0.4,0.7l0,11.1l8.5-5l0-12c0-0.3,0.1-0.5,0.4-0.7l4.6-2.7l0-8.4L47,91.2
						c-0.2,0.1-0.5,0.1-0.8,0c-0.2-0.1-0.4-0.4-0.4-0.7l0.1-40.9l-8.5,5L15.8,109.5z M51.5,97.8L51.5,97.8L51.5,97.8z M25.4,104
						c-0.2,0-0.4-0.1-0.5-0.2c-0.2-0.2-0.3-0.6-0.2-0.9L36,73.8c0.1-0.3,0.5-0.5,0.9-0.5c0.4,0.1,0.6,0.4,0.6,0.8l0,22.4
						c0,0.3-0.1,0.5-0.4,0.7l-11.3,6.7C25.6,103.9,25.5,104,25.4,104z M36,78.1l-9.1,23.3l9.1-5.4L36,78.1z M36.7,96.5L36.7,96.5
						L36.7,96.5z"/>
				</g>
				<g>
					<polygon fill="#FFFFFF" points="40.5,48.4 46.7,48.4 36.8,54.2 15,109.3 15,119.6 8.8,119.6 8.8,109.3 30.6,54.2 					"/>
					<path fill="#252D40" d="M15,120.3H8.8c-0.2,0-0.4-0.1-0.5-0.2c-0.1-0.1-0.2-0.3-0.2-0.5l0-10.2c0-0.1,0-0.2,0.1-0.3l21.8-55.1
						c0.1-0.2,0.2-0.3,0.3-0.4l9.8-5.9c0.1-0.1,0.3-0.1,0.4-0.1h6.2c0.3,0,0.6,0.2,0.7,0.6c0.1,0.3-0.1,0.7-0.3,0.9l-9.6,5.7
						l-21.7,54.7l0,10.1C15.8,120,15.4,120.3,15,120.3z M9.6,118.8h4.7l0-9.4c0-0.1,0-0.2,0.1-0.3l21.8-55.1
						c0.1-0.2,0.2-0.3,0.3-0.4l7.5-4.4h-3.2l-9.4,5.6L9.6,109.5L9.6,118.8z"/>
				</g>
				<g>
					<polygon fill="#FFFFFF" points="30.4,119.1 36.6,119.1 36.6,106.7 30.4,110.4 					"/>
					<path fill="#252D40" d="M36.6,119.9h-6.2c-0.2,0-0.4-0.1-0.5-0.2c-0.1-0.1-0.2-0.3-0.2-0.5l0-8.7c0-0.3,0.1-0.5,0.4-0.7l6.2-3.7
						c0.2-0.1,0.5-0.1,0.8,0c0.2,0.1,0.4,0.4,0.4,0.7l0,12.4C37.3,119.5,37,119.9,36.6,119.9z M31.1,118.4h4.7l0-10.3l-4.7,2.8
						L31.1,118.4z"/>
				</g>
				<g>
					<polygon fill="#FFFFFF" points="30.5,96.5 36.7,96.5 25.4,103.2 27.2,98.4 					"/>
					<path fill="#252D40" d="M25.4,104c-0.2,0-0.4-0.1-0.5-0.2c-0.2-0.2-0.3-0.6-0.2-0.9l1.9-4.8c0.1-0.2,0.2-0.3,0.3-0.4l3.3-1.9
						c0.1-0.1,0.3-0.1,0.4-0.1h6.2c0.3,0,0.6,0.2,0.7,0.6c0.1,0.3-0.1,0.7-0.3,0.9l-11.3,6.7C25.6,103.9,25.5,104,25.4,104z
						 M27.8,98.9l-1,2.5l7-4.2h-3.2L27.8,98.9z"/>
				</g>
			</g>
		</g>
		<path id="XMLID_122_" fill="#E8E6E4" d="M137.6,133.7l-27.3,15.8c-1.3,0.8-3.7,0.7-5.2-0.2l-29.4-17c-1.6-0.9-1.7-2.2-0.4-3
			l27.3-15.8c1.3-0.8,3.7-0.7,5.2,0.2l29.4,17C138.8,131.6,138.9,132.9,137.6,133.7z"/>
		<g id="XMLID_83_">
			<g id="XMLID_84_">
				<g id="XMLID_111_">
					<g id="XMLID_117_">
						<path id="XMLID_121_" fill="#252D40" d="M138.3,129.8h-1.5c0,0,0,0-0.1,0l-23.1-13.4c-1.4-0.8-3.5-0.9-4.7-0.2l-23.3,13.5
							c0,0,0,0-0.1,0l-1.7,0.1c-0.1,0-0.1,0.1-0.1,0.1v1.5l0,0c0,0.6,0.3,1.1,1.1,1.6l23.7,13.7c1.4,0.8,3.5,0.9,4.7,0.2l24.4-14.1
							c0.5-0.3,0.8-0.7,0.8-1.1l0-1.2L138.3,129.8z"/>
						<path id="XMLID_118_" fill="#252D40" d="M111.2,148.1c-1,0-2.1-0.3-3-0.8l-23.7-13.7c-0.8-0.5-1.3-1.1-1.5-1.8l0,0l0-1.9
							c0-0.4,0.3-0.8,0.8-0.8l1.6-0.1l23.2-13.4c1.4-0.8,3.8-0.7,5.4,0.2l23,13.3h2l0.2,1.5l0,1.2c-0.1,0.7-0.5,1.3-1.1,1.7
							l-24.4,14.1C112.9,147.9,112.1,148.1,111.2,148.1z M84.4,131.1L84.4,131.1l0,0.4c0,0.3,0.3,0.7,0.8,1l23.7,13.7
							c1.2,0.7,3,0.8,4,0.2l24.4-14.1c0.2-0.1,0.4-0.3,0.5-0.5l0-1.1l0-0.1h-1.1l-0.2-0.1l-23.2-13.4c-1.2-0.7-3-0.8-4-0.2
							l-23.4,13.5l-0.2,0l-1.2,0.1V131.1z"/>
					</g>
					<g id="XMLID_112_">
						<path id="XMLID_116_" fill="#FFFFFF" d="M137.6,131.1l-24.4,14.1c-1.2,0.7-3.3,0.6-4.7-0.2l-23.7-13.7c-1.4-0.8-1.5-2-0.3-2.7
							l24.4-14.1c1.2-0.7,3.3-0.6,4.7,0.2l23.7,13.7C138.7,129.2,138.8,130.4,137.6,131.1z"/>
						<path id="XMLID_113_" fill="#252D40" d="M111.2,146.3c-1,0-2.1-0.3-3-0.8l-23.7-13.7c-0.9-0.5-1.5-1.3-1.5-2.1
							c0-0.7,0.4-1.3,1.2-1.8l24.4-14.1c1.4-0.8,3.8-0.7,5.4,0.2l23.7,13.7c0.9,0.5,1.5,1.3,1.5,2.1c0,0.7-0.4,1.3-1.2,1.8
							l-24.4,14.1C112.9,146.1,112.1,146.3,111.2,146.3z M110.9,114.7c-0.6,0-1.2,0.1-1.7,0.4l-24.4,14.1c-0.2,0.1-0.5,0.3-0.5,0.6
							c0,0.2,0.2,0.6,0.8,0.9l23.7,13.7c1.2,0.7,3,0.8,4,0.2l24.4-14.1c0.2-0.1,0.5-0.3,0.5-0.6c0-0.2-0.2-0.6-0.8-0.9l-23.7-13.7
							C112.6,114.9,111.7,114.7,110.9,114.7z"/>
					</g>
				</g>
				<g id="XMLID_85_">
					<g id="XMLID_106_">
						<path id="XMLID_110_" fill="#252D40" d="M128,125.8l-0.1-0.3l-10.3-38.7h-13.1l-10.4,39l0,0.1c-1,3.2,0.7,6.5,4.8,9
							c6.7,4,17.6,4,24.3,0C127.4,132.4,128.9,129,128,125.8z"/>
						<path id="XMLID_107_" fill="#252D40" d="M111.1,138.6c-4.5,0-9.1-1-12.5-3.1c-4.3-2.6-6.2-6.2-5.1-9.8l0-0.1L104,86.1h14.2
							l10.5,39.5c1.1,3.6-0.8,7.3-5.1,9.9C120.1,137.5,115.6,138.6,111.1,138.6z M105,87.5l-10.2,38.6c-0.9,3,0.7,6,4.5,8.2
							c6.5,3.9,17.1,3.9,23.6,0c3.7-2.2,5.4-5.3,4.4-8.3l-0.1-0.3l-10.1-38.1H105z"/>
					</g>
					<g id="XMLID_101_">
						<path id="XMLID_105_" fill="#FFFFFF" d="M115.7,84c2.6,1.5,2.6,4,0,5.6c-2.6,1.5-6.7,1.5-9.3,0c-2.6-1.5-2.6-4,0-5.6
							C109,82.5,113.1,82.5,115.7,84z"/>
						<path id="XMLID_102_" fill="#252D40" d="M111.1,91.4c-1.8,0-3.6-0.4-5-1.3c-1.5-0.9-2.3-2.1-2.3-3.4c0-1.3,0.8-2.5,2.3-3.4
							c2.8-1.7,7.2-1.7,10,0l0,0c1.5,0.9,2.3,2.1,2.3,3.4c0,1.3-0.8,2.5-2.3,3.4C114.7,91,112.9,91.4,111.1,91.4z M111.1,83.5
							c-1.6,0-3.1,0.4-4.3,1.1c-1,0.6-1.6,1.4-1.6,2.2c0,0.8,0.6,1.6,1.6,2.2c2.4,1.4,6.2,1.4,8.6,0c1-0.6,1.6-1.4,1.6-2.2
							c0-0.8-0.6-1.6-1.6-2.2C114.2,83.9,112.6,83.5,111.1,83.5z"/>
					</g>
					<g id="XMLID_96_">
						<path id="XMLID_100_" fill="#252D40" d="M114,85.3c-1.6-0.8-4.2-0.8-5.9,0c-1.6,0.8-1.6,2,0,2.7c1.6,0.8,4.2,0.8,5.9,0
							C115.6,87.3,115.6,86.1,114,85.3z"/>
						<path id="XMLID_97_" fill="#252D40" d="M111.1,89.3c-1.2,0-2.3-0.2-3.2-0.6c-1.4-0.7-1.6-1.5-1.6-2c0-0.5,0.2-1.3,1.6-2
							c1.8-0.8,4.6-0.8,6.4,0c1.4,0.7,1.6,1.5,1.6,2c0,0.5-0.2,1.3-1.6,2C113.4,89.1,112.2,89.3,111.1,89.3z M111.1,85.5
							c-1,0-1.9,0.2-2.6,0.5c-0.6,0.3-0.8,0.6-0.8,0.7c0,0.2,0.3,0.5,0.8,0.7c1.4,0.7,3.9,0.7,5.3,0c0.6-0.3,0.8-0.6,0.8-0.7
							c0-0.2-0.3-0.5-0.8-0.7l0,0C113,85.6,112,85.5,111.1,85.5z"/>
					</g>
					<g id="XMLID_91_">
						<path id="XMLID_95_" fill="#FFFFFF" d="M122.3,104.4l-2.2-8.2h0c0.4,1.6-0.5,3.3-2.6,4.6c-3.6,2.1-9.4,2.1-12.9,0
							c-2.1-1.3-2.9-3-2.6-4.6h0l-1.5,5.8l-0.7,2.7c-0.6,2.1,0.4,4.4,3.2,6.1c4.5,2.7,11.8,2.7,16.3,0
							C122.1,109.1,123.1,106.7,122.3,104.4z"/>
						<path id="XMLID_92_" fill="#252D40" d="M111.1,113.5c-3.1,0-6.1-0.7-8.5-2.1c-2.9-1.7-4.2-4.3-3.5-6.8l2.4-9h1.4l-0.2,0.8
							c-0.3,1.4,0.5,2.8,2.3,3.9c3.4,2,8.9,2,12.2,0c1.8-1.1,2.6-2.5,2.3-3.9l-0.2-0.8h1.4l0.1,0.5l2.2,8.2c0.9,2.7-0.4,5.3-3.4,7.2
							C117.2,112.8,114.2,113.5,111.1,113.5z M101.9,99.2l-1.5,5.7c-0.6,1.9,0.5,3.9,2.9,5.3c4.3,2.6,11.3,2.6,15.6,0
							c2.5-1.5,3.5-3.5,2.8-5.6l0,0l-1.4-5.4c-0.5,0.8-1.3,1.6-2.3,2.2c-3.8,2.3-9.9,2.3-13.6,0C103.2,100.8,102.4,100.1,101.9,99.2
							z"/>
					</g>
					<g id="XMLID_86_">
						<path id="XMLID_90_" fill="#FFFFFF" d="M126.9,121.7L126.9,121.7l-0.1-0.4c0,0,0,0,0-0.1l-2-7.5h0c0.5,2.4-0.8,5-3.9,6.8
							c-5.4,3.2-14.1,3.2-19.5,0c-3.1-1.9-4.4-4.4-3.9-6.8h0l-2.1,8h0c-0.7,2.9,0.8,5.9,4.5,8.1c6.2,3.7,16.4,3.7,22.6,0
							C126.1,127.6,127.6,124.6,126.9,121.7z"/>
						<path id="XMLID_87_" fill="#252D40" d="M111.1,133.3c-4.2,0-8.4-1-11.7-2.9c-3.5-2.1-5.3-5-5-8h-0.1l0.2-0.9l2.2-8.5h1.4
							l-0.2,0.8c-0.4,2.2,0.9,4.5,3.6,6.1c5.2,3.1,13.6,3.1,18.8,0c2.7-1.6,4.1-3.9,3.6-6.1l-0.2-0.8h1.4l0.1,0.5l2.4,8.9h-0.1
							c0.3,3-1.5,6-5,8C119.5,132.4,115.3,133.3,111.1,133.3z M96,121.5l-0.1,0.4c-0.6,2.7,0.9,5.4,4.2,7.4c6,3.6,15.9,3.6,21.9,0
							c3.3-2,4.8-4.7,4.2-7.4l-0.1-0.4l-1.2-4.3c-0.7,1.5-2,2.8-3.8,4c-5.6,3.3-14.6,3.3-20.2,0c-1.8-1.1-3.1-2.4-3.8-3.9L96,121.5z
							"/>
					</g>
				</g>
			</g>
		</g>
	</g>
	<rect fill="none" width="150" height="150"/>
</g>
</svg>
